<mxfile host="" modified="2020-06-10T12:07:06.299Z" agent="5.0 (Windows NT 10.0; Win64; x64) AppleWebKit/537.36 (KHTML, like Gecko) Code/1.45.1 Chrome/78.0.3904.130 Electron/7.2.4 Safari/537.36" etag="V65NptMJWOoZz86GAurb" version="13.1.3" pages="2">
    <diagram id="6hGFLwfOUW9BJ-s0fimq" name="Page-1">
        <mxGraphModel dx="822" dy="518" grid="1" gridSize="10" guides="1" tooltips="1" connect="1" arrows="1" fold="1" page="1" pageScale="1" pageWidth="827" pageHeight="1169" math="0" shadow="1">
            <root>
                <mxCell id="0"/>
                <mxCell id="1" parent="0"/>
            </root>
        </mxGraphModel>
    </diagram>
    <diagram id="qXYkfgeVHz-AC1WvMXOj" name="Page-2">
        <mxGraphModel dx="822" dy="518" grid="1" gridSize="10" guides="1" tooltips="1" connect="1" arrows="1" fold="1" page="1" pageScale="1" pageWidth="850" pageHeight="1100" math="0" shadow="0">
            <root>
                <mxCell id="tAaeCf4M68LdXaiP4Um2-0"/>
                <mxCell id="tAaeCf4M68LdXaiP4Um2-1" parent="tAaeCf4M68LdXaiP4Um2-0"/>
                <mxCell id="tAaeCf4M68LdXaiP4Um2-2" value="" style="rounded=0;whiteSpace=wrap;html=1;" parent="tAaeCf4M68LdXaiP4Um2-1" vertex="1">
                    <mxGeometry x="230" y="690" width="120" height="60" as="geometry"/>
                </mxCell>
                <mxCell id="tAaeCf4M68LdXaiP4Um2-3" value="" style="shape=cube;whiteSpace=wrap;html=1;boundedLbl=1;backgroundOutline=1;darkOpacity=0.05;darkOpacity2=0.1;" parent="tAaeCf4M68LdXaiP4Um2-1" vertex="1">
                    <mxGeometry x="230" y="580" width="120" height="80" as="geometry"/>
                </mxCell>
                <mxCell id="tAaeCf4M68LdXaiP4Um2-4" value="" style="shape=image;html=1;verticalLabelPosition=bottom;labelBackgroundColor=#ffffff;verticalAlign=top;imageAspect=1;aspect=fixed;image=img/clipart/Gear_128x128.png" parent="tAaeCf4M68LdXaiP4Um2-1" vertex="1">
                    <mxGeometry x="230" y="470" width="52" height="61" as="geometry"/>
                </mxCell>
                <mxCell id="tAaeCf4M68LdXaiP4Um2-5" value="Label" style="html=1;whiteSpace=wrap;container=1;recursiveResize=0;collapsible=0;" parent="tAaeCf4M68LdXaiP4Um2-1" vertex="1">
                    <mxGeometry x="370" y="520" width="160" height="70" as="geometry"/>
                </mxCell>
                <mxCell id="tAaeCf4M68LdXaiP4Um2-6" value="" style="triangle;html=1;whiteSpace=wrap;" parent="tAaeCf4M68LdXaiP4Um2-5" vertex="1">
                    <mxGeometry x="20" y="20" width="20" height="30" as="geometry"/>
                </mxCell>
            </root>
        </mxGraphModel>
    </diagram>
</mxfile>